<?xml version="1.0" encoding="UTF-8" standalone="no"?>
<svg
   version="1.1"
   x="0"
   y="0"
   width="128"
   height="128"
   viewBox="0 0 128 128"
   id="svg39"
   sodipodi:docname="icon.svg"
   xml:space="preserve"
   inkscape:version="1.2.2 (b0a8486541, 2022-12-01)"
   xmlns:inkscape="http://www.inkscape.org/namespaces/inkscape"
   xmlns:sodipodi="http://sodipodi.sourceforge.net/DTD/sodipodi-0.dtd"
   xmlns="http://www.w3.org/2000/svg"
   xmlns:svg="http://www.w3.org/2000/svg"><defs
     id="defs43"><style
   type="text/css"
   id="style227">
    .str0 {stroke:black;stroke-width:3.5278}
    .fil0 {fill:none}
    .fil1 {fill:black;fill-rule:nonzero}
  </style>
  
  
  
  
  
  
  
  
 </defs><sodipodi:namedview
     id="namedview41"
     pagecolor="#ffffff"
     bordercolor="#666666"
     borderopacity="1.0"
     inkscape:showpageshadow="2"
     inkscape:pageopacity="0.0"
     inkscape:pagecheckerboard="0"
     inkscape:deskcolor="#d1d1d1"
     showgrid="false"
     inkscape:zoom="6.394463"
     inkscape:cx="40.972948"
     inkscape:cy="68.105797"
     inkscape:current-layer="svg39" /><polygon
     points="126,127.2 126,188.01 81.752,188.01 81.752,127.2 "
     class="fil0 str0"
     id="polygon231-3-6"
     transform="matrix(2.0884076,0,0,-1.6388104,-138.52473,333.68802)"
     style="clip-rule:evenodd;fill:#cccccc;fill-rule:evenodd;stroke:#008080;stroke-width:3.24324;stroke-dasharray:none;image-rendering:optimizeQuality;shape-rendering:geometricPrecision;text-rendering:geometricPrecision" /><polygon
     points="126,188.01 81.752,188.01 81.752,127.2 126,127.2 "
     class="fil0 str0"
     id="polygon231-3"
     transform="matrix(2.0884076,0,0,-1.6388104,-152.39348,321.20059)"
     style="clip-rule:evenodd;fill:#cccccc;fill-rule:evenodd;stroke:#008080;stroke-width:3.24324;stroke-dasharray:none;image-rendering:optimizeQuality;shape-rendering:geometricPrecision;text-rendering:geometricPrecision" /><polygon
     points="126,188.01 81.752,188.01 81.752,127.2 126,127.2 "
     class="fil0 str0"
     id="polygon231"
     transform="matrix(2.0884076,0,0,-1.6388104,-167.43553,310.56167)"
     style="clip-rule:evenodd;fill:#e6e6e6;fill-rule:evenodd;stroke:#008080;image-rendering:optimizeQuality;shape-rendering:geometricPrecision;text-rendering:geometricPrecision;stroke-width:3.2432413;stroke-dasharray:none" /><g
     id="Box"
     style="stroke-width:1.25495"
     transform="matrix(0.84137439,0,0,0.75466793,24.445348,32.455475)"><path
       d="M 2.955,45.184 V 57.587 L 21.632,69.174 64.534,60.999 V 48.976 l -25.006,-8.98 z"
       fill="#f5f5dc"
       id="path1259"
       style="stroke-width:2.55066" /><path
       d="m 2.955,45.184 18.677,11.78 42.902,-7.988"
       fill-opacity="0"
       stroke="#000000"
       stroke-width="1.5687"
       stroke-linecap="round"
       stroke-linejoin="round"
       id="path1143" /><path
       d="M 21.632,69.174 V 56.964"
       fill-opacity="0"
       stroke="#000000"
       stroke-width="1.5687"
       stroke-linecap="round"
       stroke-linejoin="round"
       id="path846" /><path
       d="M 2.955,45.184 V 57.587 L 21.632,69.174 64.534,60.999 V 48.976 l -25.006,-8.98 z"
       fill-opacity="0"
       stroke="#000000"
       stroke-width="1.5687"
       stroke-linecap="round"
       stroke-linejoin="round"
       id="path850" /><path
       d="M 50.919,54.666 61.697,52.751"
       fill-opacity="0"
       stroke="#000000"
       stroke-width="1.88242"
       stroke-linecap="round"
       id="path1265" /></g><g
     id="Keyboard"
     style="stroke-width:1.25495"
     transform="matrix(0.84137439,0,0,0.75466793,24.445348,32.455475)"><path
       d="m 27.57,64.041 36.569,-6.645 10.967,10.831 0.015,2.188 -35.671,7.7 -11.908,-7.712 z"
       fill="#f5f5dc"
       id="path1261"
       style="stroke-width:2.55066" /><path
       d="m 27.57,64.041 36.569,-6.645 10.967,10.831 0.015,2.188 -35.671,7.7 -11.908,-7.712 z"
       fill-opacity="0"
       stroke="#000000"
       stroke-width="1.5687"
       stroke-linecap="round"
       stroke-linejoin="round"
       id="path854" /><path
       d="M 39.45,78.115 V 75.332 L 27.57,64.041 m 11.88,11.291 35.092,-7.377"
       fill-opacity="0"
       stroke="#000000"
       stroke-width="1.5687"
       stroke-linecap="round"
       stroke-linejoin="round"
       id="path858" /><g
       id="path862"
       style="stroke-width:1.25495"><path
         d="m 33.265,65.54 7.782,7.056 28.601,-6.201 -6.43,-6.424 z"
         fill="#f5f5dc"
         id="path11"
         style="stroke-width:2.55066" /><path
         d="m 33.265,65.54 7.782,7.056 28.601,-6.201 -6.43,-6.424 z"
         fill-opacity="0"
         stroke="#000000"
         stroke-width="1.5687"
         stroke-linecap="round"
         stroke-linejoin="round"
         id="path13" /></g></g><g
     id="Monitor_rear"
     style="stroke-width:1.25495"
     transform="matrix(0.84137439,0,0,0.75466793,24.445348,32.455475)"><g
       id="path868"
       style="stroke-width:1.25495"><path
         d="m 47.248,40.087 v 7.071 c 0,0 -14.426,8.226 -25.458,-0.6 v -6.186 z"
         fill="#f5f5dc"
         id="path17"
         style="stroke-width:2.55066" /><path
         d="m 47.248,40.087 v 7.071 c 0,0 -14.426,8.226 -25.458,-0.6 v -6.186 z"
         fill-opacity="0"
         stroke="#000000"
         stroke-width="1.5687"
         stroke-linecap="round"
         stroke-linejoin="round"
         id="path19" /></g><g
       id="path872"
       style="stroke-width:1.25495"><path
         d="M 0.625,11.719 V 37.916 L 15.179,42.345 13.66,8.809 Z"
         fill="#f5f5dc"
         id="path22"
         style="stroke-width:2.55066" /><path
         d="M 0.625,11.719 V 37.916 L 15.179,42.345 13.66,8.809 Z"
         fill-opacity="0"
         stroke="#000000"
         stroke-width="1.5687"
         stroke-linecap="round"
         stroke-linejoin="round"
         id="path24" /></g></g><path
     d="m 70.821904,32.93318 -35.99652,3.264693 c -0.942339,0.08528 -1.696211,0.905602 -1.696211,1.745547 v 28.186847 c 0,0.596943 0.399653,1.025594 0.944864,1.244448 l 4.637655,1.861766 c 0.290274,0.169045 0.652907,0.250549 1.051718,0.197723 l 35.996521,-5.127969 c 0.937291,-0.123011 1.697052,-0.903338 1.697052,-1.744038 V 36.237116 c 0,-0.489779 -0.26335,-0.88598 -0.663845,-1.111626 l 0.0076,-0.0075 -0.05553,-0.02188 c -0.06226,-0.0317 -0.12873,-0.05509 -0.19604,-0.07849 l -4.564456,-1.825542 c -0.348329,-0.138859 -0.722741,-0.298849 -1.16278,-0.258851 z"
     fill="#f5f5dc"
     id="path1254"
     style="stroke-width:2.03247" /><path
     d="m 75.760772,34.939087 c 0.93645,-0.122256 1.696211,0.458838 1.696211,1.298784 v 26.323572 c 0,0.841454 -0.759761,1.622536 -1.696211,1.744792 L 39.76341,69.434204 C 38.826119,69.557214 38.067199,68.97612 38.067199,68.13542 V 39.948573 c 0,-0.839946 0.75892,-1.621027 1.696211,-1.744038 z"
     fill-opacity="0"
     stroke="#000000"
     stroke-width="1.25001"
     id="path928" /><g
     id="path930"
     style="stroke-width:1.25495;fill:#00ffff"
     transform="matrix(0.84137439,0,0,0.75466793,24.445348,32.455475)"><path
       d="M 57.406,9.279 V 37.104 L 21.79,42.761 v -29.88 z"
       fill="#fffffe"
       id="path30"
       style="stroke-width:2.55066;fill:#00ffff" /><path
       d="M 57.406,9.279 V 37.104 L 21.79,42.761 v -29.88 z"
       fill-opacity="0"
       stroke="#000000"
       stroke-width="1.5687"
       stroke-linecap="round"
       stroke-linejoin="round"
       id="path32"
       style="fill:#00ffff" /></g><path
     d="M 38.899319,69.311947 34.074037,67.37396 C 33.528826,67.155106 33.129173,66.72721 33.129173,66.130267 V 37.942666 c 0,-0.839946 0.75303,-1.658761 1.696211,-1.744793 l 35.997362,-3.263939 c 0.440039,-0.04 0.812767,0.118483 1.161938,0.258097 l 4.816868,1.925912"
     fill-opacity="0"
     stroke="#000000"
     stroke-width="1.25001"
     stroke-linecap="round"
     stroke-linejoin="round"
     id="path1219" /><path
     d="M 70.333907,62.905571 71.647293,62.72747"
     fill-opacity="0"
     stroke="#000000"
     stroke-width="1.49999"
     stroke-linecap="round"
     stroke-linejoin="round"
     id="path1263" /><line
     y1="18.530304"
     x2="86.98494"
     x1="13.685662"
     y2="18.530304"
     class="fil0 str0"
     id="line245"
     style="clip-rule:evenodd;fill-rule:evenodd;stroke-width:14;stroke-dasharray:none;image-rendering:optimizeQuality;shape-rendering:geometricPrecision;text-rendering:geometricPrecision;fill:#000080;stroke:#000080" /></svg>
